# Blender 3.3.1
# www.blender.org
mtllib sewerStraight.mtl
o Cylinder
v 0.029724 0.492421 -6.000000
v 21.159653 0.492423 -6.000000
v 0.029724 0.001628 -5.988160
v 21.159653 0.001629 -5.988160
v 0.029724 0.001628 5.988160
v 21.159653 0.001629 5.988160
v 0.029724 0.492421 6.000000
v 21.159653 0.492423 6.000000
v 0.029724 1.052016 5.988160
v 21.159653 1.052018 5.988160
v 0.029724 1.376823 5.952688
v 21.159653 1.376825 5.952688
v 0.029724 1.671839 5.893723
v 21.159653 1.671841 5.893723
v 0.029724 1.937419 5.811499
v 21.159653 1.937421 5.811499
v 0.029724 2.118401 5.706339
v 21.159653 2.118402 5.706339
v 0.029724 2.295723 5.578659
v 21.159653 2.295725 5.578659
v 0.029724 2.468688 5.428962
v 21.159653 2.468689 5.428962
v 0.029724 2.636611 5.257840
v 21.159653 2.636612 5.257840
v 0.029724 2.798830 5.065968
v 21.159653 2.798832 5.065968
v 0.029724 2.954705 4.854102
v 21.159653 2.954707 4.854102
v 0.029724 3.103622 4.623079
v 21.159653 3.103623 4.623079
v 0.029724 3.244991 4.373812
v 21.159653 3.244992 4.373812
v 0.029724 3.378255 4.107283
v 21.159653 3.378257 4.107283
v 0.029724 3.502889 3.824544
v 21.159653 3.502890 3.824544
v 0.029724 3.618400 3.526711
v 21.159653 3.618402 3.526711
v 0.029724 3.724333 3.214961
v 21.159653 3.724334 3.214961
v 0.029724 3.820269 2.890522
v 21.159653 3.820271 2.890522
v 0.029724 3.905831 2.554676
v 21.159653 3.905832 2.554676
v 0.029724 3.980678 2.208747
v 21.159653 3.980680 2.208747
v 0.029724 4.044518 1.854102
v 21.159653 4.044520 1.854102
v 0.029724 4.097098 1.492139
v 21.159653 4.097100 1.492139
v 0.029724 4.138210 1.124288
v 21.159653 4.138212 1.124288
v 0.029724 4.167693 0.751999
v 21.159653 4.167695 0.751999
v 0.029724 4.185429 0.376743
v 21.159653 4.185431 0.376743
v 0.029724 4.191349 0.000000
v 21.159653 4.191351 0.000000
v 0.029724 4.185429 -0.376743
v 21.159653 4.185431 -0.376743
v 0.029724 4.167693 -0.751999
v 21.159653 4.167695 -0.751999
v 0.029724 4.138210 -1.124288
v 21.159653 4.138212 -1.124288
v 0.029724 4.097098 -1.492139
v 21.159653 4.097100 -1.492139
v 0.029724 4.044518 -1.854102
v 21.159653 4.044520 -1.854102
v 0.029724 3.980678 -2.208747
v 21.159653 3.980680 -2.208747
v 0.029724 3.905831 -2.554676
v 21.159653 3.905832 -2.554676
v 0.029724 3.820269 -2.890522
v 21.159653 3.820271 -2.890522
v 0.029724 3.724333 -3.214961
v 21.159653 3.724334 -3.214961
v 0.029724 3.618400 -3.526711
v 21.159653 3.618402 -3.526711
v 0.029724 3.502889 -3.824544
v 21.159653 3.502890 -3.824544
v 0.029724 3.378255 -4.107283
v 21.159653 3.378257 -4.107283
v 0.029724 3.244991 -4.373812
v 21.159653 3.244992 -4.373812
v 0.029724 3.103622 -4.623079
v 21.159653 3.103623 -4.623079
v 0.029724 2.954705 -4.854102
v 21.159653 2.954707 -4.854102
v 0.029724 2.798830 -5.065968
v 21.159653 2.798832 -5.065968
v 0.029724 2.636611 -5.257840
v 21.159653 2.636612 -5.257840
v 0.029724 2.468688 -5.428962
v 21.159653 2.468689 -5.428962
v 0.029724 2.295723 -5.578659
v 21.159653 2.295725 -5.578659
v 0.029724 2.118401 -5.706339
v 21.159653 2.118402 -5.706339
v 0.029724 1.937419 -5.811499
v 21.159653 1.937421 -5.811499
v 0.029724 1.671839 -5.893723
v 21.159653 1.671841 -5.893723
v 0.029724 1.376823 -5.952688
v 21.159653 1.376825 -5.952688
v 0.029724 1.052016 -5.988160
v 21.159653 1.052018 -5.988160
v 21.159653 0.001629 -3.993355
v 0.029724 0.001628 -3.993355
v 21.159653 0.001629 4.007879
v 0.029724 0.001628 4.007879
v 21.159653 -1.151431 -3.993355
v 0.029725 -1.151433 -3.993355
v 21.159653 -1.151431 4.007879
v 0.029725 -1.151433 4.007879
v 0.029724 0.492644 -5.400000
v 21.159653 0.492646 -5.400000
v 0.029724 0.215035 -5.396350
v 21.159653 0.215037 -5.396350
v 0.029724 0.215035 5.405801
v 21.159653 0.215037 5.405801
v 0.029724 0.492644 5.400000
v 21.159653 0.492646 5.400000
v 0.029724 1.042249 5.388478
v 21.159653 1.042250 5.388478
v 0.029724 1.353723 5.354470
v 21.159653 1.353724 5.354470
v 0.029724 1.633963 5.298525
v 21.159653 1.633964 5.298525
v 0.029724 1.872488 5.225721
v 21.159653 1.872490 5.225721
v 0.029724 2.025696 5.135705
v 21.159653 2.025697 5.135705
v 0.029724 2.185286 5.020793
v 21.159653 2.185287 5.020793
v 0.029724 2.340954 4.886066
v 21.159653 2.340955 4.886066
v 0.029724 2.492085 4.732056
v 21.159653 2.492086 4.732056
v 0.029724 2.638082 4.559371
v 21.159653 2.638084 4.559371
v 0.029724 2.778370 4.368692
v 21.159653 2.778371 4.368692
v 0.029724 2.912395 4.160771
v 21.159653 2.912396 4.160771
v 0.029724 3.039627 3.936431
v 21.159653 3.039628 3.936431
v 0.029724 3.159565 3.696555
v 21.159653 3.159566 3.696555
v 0.029724 3.271735 3.442090
v 21.159653 3.271737 3.442090
v 0.029724 3.375695 3.174041
v 21.159653 3.375696 3.174041
v 0.029724 3.471034 2.893465
v 21.159653 3.471036 2.893465
v 0.029724 3.557377 2.601470
v 21.159653 3.557379 2.601470
v 0.029724 3.634382 2.299208
v 21.159653 3.634384 2.299208
v 0.029724 3.701746 1.987873
v 21.159653 3.701747 1.987873
v 0.029724 3.759202 1.668692
v 21.159653 3.759203 1.668692
v 0.029724 3.806524 1.342926
v 21.159653 3.806525 1.342926
v 0.029724 3.843525 1.011858
v 21.159653 3.843526 1.011858
v 0.029724 3.870059 0.676799
v 21.159653 3.870061 0.676799
v 0.029724 3.886021 0.339069
v 21.159653 3.886023 0.339069
v 0.029724 3.891349 0.000000
v 21.159653 3.891351 0.000000
v 0.029724 3.886021 -0.339069
v 21.159653 3.886023 -0.339069
v 0.029724 3.870059 -0.676799
v 21.159653 3.870061 -0.676799
v 0.029724 3.843525 -1.011858
v 21.159653 3.843526 -1.011858
v 0.029724 3.806524 -1.342926
v 21.159653 3.806525 -1.342926
v 0.029724 3.759202 -1.668692
v 21.159653 3.759203 -1.668692
v 0.029724 3.701746 -1.987873
v 21.159653 3.701747 -1.987873
v 0.029724 3.634382 -2.299208
v 21.159653 3.634384 -2.299208
v 0.029724 3.557377 -2.601470
v 21.159653 3.557379 -2.601470
v 0.029724 3.471034 -2.893465
v 21.159653 3.471036 -2.893465
v 0.029724 3.375695 -3.174041
v 21.159653 3.375696 -3.174041
v 0.029724 3.271735 -3.442090
v 21.159653 3.271737 -3.442090
v 0.029724 3.159565 -3.696555
v 21.159653 3.159566 -3.696555
v 0.029724 3.039627 -3.936431
v 21.159653 3.039628 -3.936431
v 0.029724 2.912395 -4.160771
v 21.159653 2.912396 -4.160771
v 0.029724 2.778370 -4.368692
v 21.159653 2.778371 -4.368692
v 0.029724 2.638082 -4.559371
v 21.159653 2.638084 -4.559371
v 0.029724 2.492085 -4.732056
v 21.159653 2.492086 -4.732056
v 0.029724 2.340954 -4.886066
v 21.159653 2.340955 -4.886066
v 0.029724 2.185286 -5.020793
v 21.159653 2.185287 -5.020793
v 0.029724 2.025696 -5.135705
v 21.159653 2.025697 -5.135705
v 0.029724 1.872488 -5.225721
v 21.159653 1.872490 -5.225721
v 0.029724 1.633963 -5.298525
v 21.159653 1.633964 -5.298525
v 0.029724 1.353723 -5.354470
v 21.159653 1.353724 -5.354470
v 0.029724 1.042249 -5.388478
v 21.159653 1.042250 -5.388478
v 21.159653 0.213761 -3.569091
v 0.029724 0.213760 -3.569091
v 21.159653 0.213761 3.583615
v 0.029724 0.213760 3.583615
v 21.159653 -0.939299 -3.569091
v 0.029725 -0.939300 -3.569091
v 21.159653 -0.939299 3.583615
v 0.029725 -0.939300 3.583615
vn -0.0000 -0.0241 -0.9997
vn -0.0000 -0.0241 0.9997
vn -0.0000 0.0212 0.9998
vn -0.0000 0.1086 0.9941
vn -0.0000 0.1960 0.9806
vn -0.0000 0.2958 0.9553
vn -0.0000 0.5024 0.8646
vn -0.0000 0.5843 0.8115
vn -0.0000 0.6544 0.7561
vn -0.0000 0.7137 0.7004
vn -0.0000 0.7636 0.6456
vn -0.0000 0.8055 0.5926
vn -0.0000 0.8405 0.5418
vn -0.0000 0.8698 0.4933
vn -0.0000 0.8944 0.4472
vn -0.0000 0.9150 0.4034
vn -0.0000 0.9323 0.3616
vn -0.0000 0.9468 0.3217
vn -0.0000 0.9590 0.2836
vn -0.0000 0.9690 0.2469
vn -0.0000 0.9774 0.2115
vn -0.0000 0.9842 0.1772
vn -0.0000 0.9896 0.1438
vn -0.0000 0.9938 0.1111
vn -0.0000 0.9969 0.0789
vn -0.0000 0.9989 0.0472
vn -0.0000 0.9999 0.0157
vn -0.0000 0.9999 -0.0157
vn -0.0000 0.9989 -0.0472
vn -0.0000 0.9969 -0.0789
vn -0.0000 0.9938 -0.1111
vn -0.0000 0.9896 -0.1438
vn -0.0000 0.9842 -0.1772
vn -0.0000 0.9774 -0.2115
vn -0.0000 0.9690 -0.2469
vn -0.0000 0.9590 -0.2836
vn -0.0000 0.9468 -0.3217
vn -0.0000 0.9323 -0.3616
vn -0.0000 0.9150 -0.4034
vn -0.0000 0.8944 -0.4472
vn -0.0000 0.8698 -0.4933
vn -0.0000 0.8405 -0.5418
vn -0.0000 0.8055 -0.5926
vn -0.0000 0.7636 -0.6456
vn -0.0000 0.7137 -0.7004
vn -0.0000 0.6544 -0.7561
vn -0.0000 0.5843 -0.8115
vn -0.0000 0.5024 -0.8646
vn -0.0000 0.2958 -0.9553
vn -0.0000 0.1960 -0.9806
vn -0.0000 0.1086 -0.9941
vn -0.0000 0.0212 -0.9998
vn -0.0000 -1.0000 -0.0000
vn -0.0000 -0.0000 -1.0000
vn -0.0000 -0.0000 1.0000
vn -0.0000 0.0131 0.9999
vn -0.0000 -0.0209 -0.9998
vn -0.0000 -0.0210 -0.9998
vn -0.0000 -0.1085 -0.9941
vn -0.0000 -0.1958 -0.9806
vn -0.0000 -0.2919 -0.9564
vn -0.0000 -0.5066 -0.8622
vn -0.0000 -0.5843 -0.8115
vn -0.0000 -0.6544 -0.7561
vn -0.0000 -0.7137 -0.7004
vn -0.0000 -0.7636 -0.6456
vn -0.0000 -0.8055 -0.5926
vn -0.0000 -0.8405 -0.5418
vn -0.0000 -0.8698 -0.4933
vn -0.0000 -0.8944 -0.4472
vn -0.0000 -0.9150 -0.4034
vn -0.0000 -0.9323 -0.3616
vn -0.0000 -0.9468 -0.3217
vn -0.0000 -0.9590 -0.2836
vn -0.0000 -0.9690 -0.2469
vn -0.0000 -0.9774 -0.2115
vn -0.0000 -0.9842 -0.1772
vn -0.0000 -0.9896 -0.1438
vn -0.0000 -0.9938 -0.1111
vn -0.0000 -0.9969 -0.0789
vn -0.0000 -0.9989 -0.0472
vn -0.0000 -0.9999 -0.0157
vn -0.0000 -0.9999 0.0157
vn -0.0000 -0.9989 0.0472
vn -0.0000 -0.9969 0.0789
vn -0.0000 -0.9938 0.1111
vn -0.0000 -0.9896 0.1438
vn -0.0000 -0.9842 0.1772
vn -0.0000 -0.9774 0.2115
vn -0.0000 -0.9690 0.2469
vn -0.0000 -0.9590 0.2836
vn -0.0000 -0.9468 0.3217
vn -0.0000 -0.9323 0.3616
vn -0.0000 -0.9150 0.4034
vn -0.0000 -0.8944 0.4472
vn -0.0000 -0.8698 0.4933
vn -0.0000 -0.8405 0.5418
vn -0.0000 -0.8055 0.5926
vn -0.0000 -0.7636 0.6456
vn -0.0000 -0.7137 0.7004
vn -0.0000 -0.6544 0.7561
vn -0.0000 -0.5843 0.8115
vn -0.0000 -0.5066 0.8622
vn -0.0000 -0.2919 0.9564
vn -0.0000 -0.1958 0.9806
vn -0.0000 -0.1085 0.9941
vn -0.0000 -0.0210 0.9998
vn -0.0000 1.0000 -0.0007
vn -0.0000 1.0000 0.0007
vn -0.0000 1.0000 -0.0000
vn -1.0000 -0.0000 -0.0000
vn 1.0000 -0.0000 -0.0000
vt 1.000000 0.500000
vt 0.000001 0.500000
vt 1.000000 1.000000
vt 0.000001 1.000000
vt 0.990000 0.500000
vt 0.990000 1.000000
vt 0.510000 0.500000
vt 0.510000 1.000000
vt 0.500000 0.500000
vt 0.500000 1.000000
vt 0.490000 0.500000
vt 0.490000 1.000000
vt 0.480000 0.500000
vt 0.480000 1.000000
vt 0.470001 0.500000
vt 0.470001 1.000000
vt 0.460001 0.500000
vt 0.460001 1.000000
vt 0.450001 0.500000
vt 0.450001 1.000000
vt 0.440001 0.500000
vt 0.440001 1.000000
vt 0.430001 0.500000
vt 0.430001 1.000000
vt 0.420001 0.500000
vt 0.420001 1.000000
vt 0.410001 0.500000
vt 0.410001 1.000000
vt 0.400001 0.500000
vt 0.400001 1.000000
vt 0.390001 0.500000
vt 0.390001 1.000000
vt 0.380001 0.500000
vt 0.380001 1.000000
vt 0.370001 0.500000
vt 0.370001 1.000000
vt 0.360001 0.500000
vt 0.360001 1.000000
vt 0.350001 0.500000
vt 0.350001 1.000000
vt 0.340001 0.500000
vt 0.340001 1.000000
vt 0.330001 0.500000
vt 0.330001 1.000000
vt 0.320001 0.500000
vt 0.320001 1.000000
vt 0.310001 0.500000
vt 0.310001 1.000000
vt 0.300001 0.500000
vt 0.300001 1.000000
vt 0.290001 0.500000
vt 0.290001 1.000000
vt 0.280001 0.500000
vt 0.280001 1.000000
vt 0.270001 0.500000
vt 0.270001 1.000000
vt 0.260001 0.500000
vt 0.260001 1.000000
vt 0.250001 0.500000
vt 0.250001 1.000000
vt 0.240001 0.500000
vt 0.240001 1.000000
vt 0.230001 0.500000
vt 0.230001 1.000000
vt 0.220001 0.500000
vt 0.220001 1.000000
vt 0.210001 0.500000
vt 0.210001 1.000000
vt 0.200001 0.500000
vt 0.200001 1.000000
vt 0.190001 0.500000
vt 0.190001 1.000000
vt 0.180001 0.500000
vt 0.180001 1.000000
vt 0.170001 0.500000
vt 0.170001 1.000000
vt 0.160001 0.500000
vt 0.160001 1.000000
vt 0.150001 0.500000
vt 0.150001 1.000000
vt 0.140001 0.500000
vt 0.140001 1.000000
vt 0.130001 0.500000
vt 0.130001 1.000000
vt 0.120001 0.500000
vt 0.120001 1.000000
vt 0.110001 0.500000
vt 0.110001 1.000000
vt 0.100001 0.500000
vt 0.100001 1.000000
vt 0.090001 0.500000
vt 0.090001 1.000000
vt 0.080001 0.500000
vt 0.080001 1.000000
vt 0.070001 0.500000
vt 0.070001 1.000000
vt 0.060001 0.500000
vt 0.060001 1.000000
vt 0.050001 0.500000
vt 0.050001 1.000000
vt 0.040001 0.500000
vt 0.040001 1.000000
vt 0.030001 0.500000
vt 0.030001 1.000000
vt 0.020001 0.500000
vt 0.020001 1.000000
vt 0.010001 0.500000
vt 0.010001 1.000000
vt 0.910050 1.000000
vt 0.910050 0.500000
vt 0.589368 1.000000
vt 0.589368 0.500000
vt 0.910050 1.000000
vt 0.910050 0.500000
vt 0.589368 1.000000
vt 0.589368 0.500000
vt 1.000000 0.500000
vt 0.000001 0.500000
vt 1.000000 1.000000
vt 0.000001 1.000000
vt 0.990000 0.500000
vt 0.990000 1.000000
vt 0.510000 0.500000
vt 0.510000 1.000000
vt 0.500000 0.500000
vt 0.500000 1.000000
vt 0.490000 0.500000
vt 0.490000 1.000000
vt 0.480000 0.500000
vt 0.480000 1.000000
vt 0.470001 0.500000
vt 0.470001 1.000000
vt 0.460001 0.500000
vt 0.460001 1.000000
vt 0.450001 0.500000
vt 0.450001 1.000000
vt 0.440001 0.500000
vt 0.440001 1.000000
vt 0.430001 0.500000
vt 0.430001 1.000000
vt 0.420001 0.500000
vt 0.420001 1.000000
vt 0.410001 0.500000
vt 0.410001 1.000000
vt 0.400001 0.500000
vt 0.400001 1.000000
vt 0.390001 0.500000
vt 0.390001 1.000000
vt 0.380001 0.500000
vt 0.380001 1.000000
vt 0.370001 0.500000
vt 0.370001 1.000000
vt 0.360001 0.500000
vt 0.360001 1.000000
vt 0.350001 0.500000
vt 0.350001 1.000000
vt 0.340001 0.500000
vt 0.340001 1.000000
vt 0.330001 0.500000
vt 0.330001 1.000000
vt 0.320001 0.500000
vt 0.320001 1.000000
vt 0.310001 0.500000
vt 0.310001 1.000000
vt 0.300001 0.500000
vt 0.300001 1.000000
vt 0.290001 0.500000
vt 0.290001 1.000000
vt 0.280001 0.500000
vt 0.280001 1.000000
vt 0.270001 0.500000
vt 0.270001 1.000000
vt 0.260001 0.500000
vt 0.260001 1.000000
vt 0.250001 0.500000
vt 0.250001 1.000000
vt 0.240001 0.500000
vt 0.240001 1.000000
vt 0.230001 0.500000
vt 0.230001 1.000000
vt 0.220001 0.500000
vt 0.220001 1.000000
vt 0.210001 0.500000
vt 0.210001 1.000000
vt 0.200001 0.500000
vt 0.200001 1.000000
vt 0.190001 0.500000
vt 0.190001 1.000000
vt 0.180001 0.500000
vt 0.180001 1.000000
vt 0.170001 0.500000
vt 0.170001 1.000000
vt 0.160001 0.500000
vt 0.160001 1.000000
vt 0.150001 0.500000
vt 0.150001 1.000000
vt 0.140001 0.500000
vt 0.140001 1.000000
vt 0.130001 0.500000
vt 0.130001 1.000000
vt 0.120001 0.500000
vt 0.120001 1.000000
vt 0.110001 0.500000
vt 0.110001 1.000000
vt 0.100001 0.500000
vt 0.100001 1.000000
vt 0.090001 0.500000
vt 0.090001 1.000000
vt 0.080001 0.500000
vt 0.080001 1.000000
vt 0.070001 0.500000
vt 0.070001 1.000000
vt 0.060001 0.500000
vt 0.060001 1.000000
vt 0.050001 0.500000
vt 0.050001 1.000000
vt 0.040001 0.500000
vt 0.040001 1.000000
vt 0.030001 0.500000
vt 0.030001 1.000000
vt 0.020001 0.500000
vt 0.020001 1.000000
vt 0.010001 0.500000
vt 0.010001 1.000000
vt 0.910050 1.000000
vt 0.910050 0.500000
vt 0.589368 1.000000
vt 0.589368 0.500000
vt 0.910050 1.000000
vt 0.910050 0.500000
vt 0.589368 1.000000
vt 0.589368 0.500000
s 0
f 1/1/1 2/3/1 4/6/1 3/5/1
f 5/7/2 6/8/2 8/10/2 7/9/2
f 7/9/3 8/10/3 10/12/3 9/11/3
f 9/11/4 10/12/4 12/14/4 11/13/4
f 11/13/5 12/14/5 14/16/5 13/15/5
f 13/15/6 14/16/6 16/18/6 15/17/6
f 15/17/7 16/18/7 18/20/7 17/19/7
f 17/19/8 18/20/8 20/22/8 19/21/8
f 19/21/9 20/22/9 22/24/9 21/23/9
f 21/23/10 22/24/10 24/26/10 23/25/10
f 23/25/11 24/26/11 26/28/11 25/27/11
f 25/27/12 26/28/12 28/30/12 27/29/12
f 27/29/13 28/30/13 30/32/13 29/31/13
f 29/31/14 30/32/14 32/34/14 31/33/14
f 31/33/15 32/34/15 34/36/15 33/35/15
f 33/35/16 34/36/16 36/38/16 35/37/16
f 35/37/17 36/38/17 38/40/17 37/39/17
f 37/39/18 38/40/18 40/42/18 39/41/18
f 39/41/19 40/42/19 42/44/19 41/43/19
f 41/43/20 42/44/20 44/46/20 43/45/20
f 43/45/21 44/46/21 46/48/21 45/47/21
f 45/47/22 46/48/22 48/50/22 47/49/22
f 47/49/23 48/50/23 50/52/23 49/51/23
f 49/51/24 50/52/24 52/54/24 51/53/24
f 51/53/25 52/54/25 54/56/25 53/55/25
f 53/55/26 54/56/26 56/58/26 55/57/26
f 55/57/27 56/58/27 58/60/27 57/59/27
f 57/59/28 58/60/28 60/62/28 59/61/28
f 59/61/29 60/62/29 62/64/29 61/63/29
f 61/63/30 62/64/30 64/66/30 63/65/30
f 63/65/31 64/66/31 66/68/31 65/67/31
f 65/67/32 66/68/32 68/70/32 67/69/32
f 67/69/33 68/70/33 70/72/33 69/71/33
f 69/71/34 70/72/34 72/74/34 71/73/34
f 71/73/35 72/74/35 74/76/35 73/75/35
f 73/75/36 74/76/36 76/78/36 75/77/36
f 75/77/37 76/78/37 78/80/37 77/79/37
f 77/79/38 78/80/38 80/82/38 79/81/38
f 79/81/39 80/82/39 82/84/39 81/83/39
f 81/83/40 82/84/40 84/86/40 83/85/40
f 83/85/41 84/86/41 86/88/41 85/87/41
f 85/87/42 86/88/42 88/90/42 87/89/42
f 87/89/43 88/90/43 90/92/43 89/91/43
f 89/91/44 90/92/44 92/94/44 91/93/44
f 91/93/45 92/94/45 94/96/45 93/95/45
f 93/95/46 94/96/46 96/98/46 95/97/46
f 95/97/47 96/98/47 98/100/47 97/99/47
f 97/99/48 98/100/48 100/102/48 99/101/48
f 99/101/49 100/102/49 102/104/49 101/103/49
f 101/103/50 102/104/50 104/106/50 103/105/50
f 103/105/51 104/106/51 106/108/51 105/107/51
f 105/107/52 106/108/52 2/4/52 1/2/52
f 110/112/53 109/111/53 6/8/53 5/7/53
f 3/5/53 4/6/53 107/109/53 108/110/53
f 112/114/53 111/113/53 113/115/53 114/116/53
f 108/110/54 107/109/54 111/113/54 112/114/54
f 109/111/55 110/112/55 114/116/55 113/115/55
f 115/117/56 117/121/56 118/122/56 116/119/56
f 119/123/57 121/125/57 122/126/57 120/124/57
f 121/125/58 123/127/58 124/128/58 122/126/58
f 123/127/59 125/129/59 126/130/59 124/128/59
f 125/129/60 127/131/60 128/132/60 126/130/60
f 127/131/61 129/133/61 130/134/61 128/132/61
f 129/133/62 131/135/62 132/136/62 130/134/62
f 131/135/63 133/137/63 134/138/63 132/136/63
f 133/137/64 135/139/64 136/140/64 134/138/64
f 135/139/65 137/141/65 138/142/65 136/140/65
f 137/141/66 139/143/66 140/144/66 138/142/66
f 139/143/67 141/145/67 142/146/67 140/144/67
f 141/145/68 143/147/68 144/148/68 142/146/68
f 143/147/69 145/149/69 146/150/69 144/148/69
f 145/149/70 147/151/70 148/152/70 146/150/70
f 147/151/71 149/153/71 150/154/71 148/152/71
f 149/153/72 151/155/72 152/156/72 150/154/72
f 151/155/73 153/157/73 154/158/73 152/156/73
f 153/157/74 155/159/74 156/160/74 154/158/74
f 155/159/75 157/161/75 158/162/75 156/160/75
f 157/161/76 159/163/76 160/164/76 158/162/76
f 159/163/77 161/165/77 162/166/77 160/164/77
f 161/165/78 163/167/78 164/168/78 162/166/78
f 163/167/79 165/169/79 166/170/79 164/168/79
f 165/169/80 167/171/80 168/172/80 166/170/80
f 167/171/81 169/173/81 170/174/81 168/172/81
f 169/173/82 171/175/82 172/176/82 170/174/82
f 171/175/83 173/177/83 174/178/83 172/176/83
f 173/177/84 175/179/84 176/180/84 174/178/84
f 175/179/85 177/181/85 178/182/85 176/180/85
f 177/181/86 179/183/86 180/184/86 178/182/86
f 179/183/87 181/185/87 182/186/87 180/184/87
f 181/185/88 183/187/88 184/188/88 182/186/88
f 183/187/89 185/189/89 186/190/89 184/188/89
f 185/189/90 187/191/90 188/192/90 186/190/90
f 187/191/91 189/193/91 190/194/91 188/192/91
f 189/193/92 191/195/92 192/196/92 190/194/92
f 191/195/93 193/197/93 194/198/93 192/196/93
f 193/197/94 195/199/94 196/200/94 194/198/94
f 195/199/95 197/201/95 198/202/95 196/200/95
f 197/201/96 199/203/96 200/204/96 198/202/96
f 199/203/97 201/205/97 202/206/97 200/204/97
f 201/205/98 203/207/98 204/208/98 202/206/98
f 203/207/99 205/209/99 206/210/99 204/208/99
f 205/209/100 207/211/100 208/212/100 206/210/100
f 207/211/101 209/213/101 210/214/101 208/212/101
f 209/213/102 211/215/102 212/216/102 210/214/102
f 211/215/103 213/217/103 214/218/103 212/216/103
f 213/217/104 215/219/104 216/220/104 214/218/104
f 215/219/105 217/221/105 218/222/105 216/220/105
f 217/221/106 219/223/106 220/224/106 218/222/106
f 219/223/107 115/118/107 116/120/107 220/224/107
f 224/228/108 119/123/108 120/124/108 223/227/108
f 117/121/109 222/226/109 221/225/109 118/122/109
f 226/230/110 228/232/110 227/231/110 225/229/110
f 222/226/55 226/230/55 225/229/55 221/225/55
f 223/227/54 227/231/54 228/232/54 224/228/54
f 1/1/111 3/5/111 117/121/111 115/117/111
f 4/6/112 2/3/112 116/119/112 118/122/112
f 5/7/111 7/9/111 121/125/111 119/123/111
f 8/10/112 6/8/112 120/124/112 122/126/112
f 7/9/111 9/11/111 123/127/111 121/125/111
f 10/12/112 8/10/112 122/126/112 124/128/112
f 9/11/111 11/13/111 125/129/111 123/127/111
f 12/14/112 10/12/112 124/128/112 126/130/112
f 11/13/111 13/15/111 127/131/111 125/129/111
f 14/16/112 12/14/112 126/130/112 128/132/112
f 13/15/111 15/17/111 129/133/111 127/131/111
f 16/18/112 14/16/112 128/132/112 130/134/112
f 15/17/111 17/19/111 131/135/111 129/133/111
f 18/20/112 16/18/112 130/134/112 132/136/112
f 17/19/111 19/21/111 133/137/111 131/135/111
f 20/22/112 18/20/112 132/136/112 134/138/112
f 19/21/111 21/23/111 135/139/111 133/137/111
f 22/24/112 20/22/112 134/138/112 136/140/112
f 21/23/111 23/25/111 137/141/111 135/139/111
f 24/26/112 22/24/112 136/140/112 138/142/112
f 23/25/111 25/27/111 139/143/111 137/141/111
f 26/28/112 24/26/112 138/142/112 140/144/112
f 25/27/111 27/29/111 141/145/111 139/143/111
f 28/30/112 26/28/112 140/144/112 142/146/112
f 27/29/111 29/31/111 143/147/111 141/145/111
f 30/32/112 28/30/112 142/146/112 144/148/112
f 29/31/111 31/33/111 145/149/111 143/147/111
f 32/34/112 30/32/112 144/148/112 146/150/112
f 31/33/111 33/35/111 147/151/111 145/149/111
f 34/36/112 32/34/112 146/150/112 148/152/112
f 33/35/111 35/37/111 149/153/111 147/151/111
f 36/38/112 34/36/112 148/152/112 150/154/112
f 35/37/111 37/39/111 151/155/111 149/153/111
f 38/40/112 36/38/112 150/154/112 152/156/112
f 37/39/111 39/41/111 153/157/111 151/155/111
f 40/42/112 38/40/112 152/156/112 154/158/112
f 39/41/111 41/43/111 155/159/111 153/157/111
f 42/44/112 40/42/112 154/158/112 156/160/112
f 41/43/111 43/45/111 157/161/111 155/159/111
f 44/46/112 42/44/112 156/160/112 158/162/112
f 43/45/111 45/47/111 159/163/111 157/161/111
f 46/48/112 44/46/112 158/162/112 160/164/112
f 45/47/111 47/49/111 161/165/111 159/163/111
f 48/50/112 46/48/112 160/164/112 162/166/112
f 47/49/111 49/51/111 163/167/111 161/165/111
f 50/52/112 48/50/112 162/166/112 164/168/112
f 49/51/111 51/53/111 165/169/111 163/167/111
f 52/54/112 50/52/112 164/168/112 166/170/112
f 51/53/111 53/55/111 167/171/111 165/169/111
f 54/56/112 52/54/112 166/170/112 168/172/112
f 53/55/111 55/57/111 169/173/111 167/171/111
f 56/58/112 54/56/112 168/172/112 170/174/112
f 55/57/111 57/59/111 171/175/111 169/173/111
f 58/60/112 56/58/112 170/174/112 172/176/112
f 57/59/111 59/61/111 173/177/111 171/175/111
f 60/62/112 58/60/112 172/176/112 174/178/112
f 59/61/111 61/63/111 175/179/111 173/177/111
f 62/64/112 60/62/112 174/178/112 176/180/112
f 61/63/111 63/65/111 177/181/111 175/179/111
f 64/66/112 62/64/112 176/180/112 178/182/112
f 63/65/111 65/67/111 179/183/111 177/181/111
f 66/68/112 64/66/112 178/182/112 180/184/112
f 65/67/111 67/69/111 181/185/111 179/183/111
f 68/70/112 66/68/112 180/184/112 182/186/112
f 67/69/111 69/71/111 183/187/111 181/185/111
f 70/72/112 68/70/112 182/186/112 184/188/112
f 69/71/111 71/73/111 185/189/111 183/187/111
f 72/74/112 70/72/112 184/188/112 186/190/112
f 71/73/111 73/75/111 187/191/111 185/189/111
f 74/76/112 72/74/112 186/190/112 188/192/112
f 73/75/111 75/77/111 189/193/111 187/191/111
f 76/78/112 74/76/112 188/192/112 190/194/112
f 75/77/111 77/79/111 191/195/111 189/193/111
f 78/80/112 76/78/112 190/194/112 192/196/112
f 77/79/111 79/81/111 193/197/111 191/195/111
f 80/82/112 78/80/112 192/196/112 194/198/112
f 79/81/111 81/83/111 195/199/111 193/197/111
f 82/84/112 80/82/112 194/198/112 196/200/112
f 81/83/111 83/85/111 197/201/111 195/199/111
f 84/86/112 82/84/112 196/200/112 198/202/112
f 83/85/111 85/87/111 199/203/111 197/201/111
f 86/88/112 84/86/112 198/202/112 200/204/112
f 85/87/111 87/89/111 201/205/111 199/203/111
f 88/90/112 86/88/112 200/204/112 202/206/112
f 87/89/111 89/91/111 203/207/111 201/205/111
f 90/92/112 88/90/112 202/206/112 204/208/112
f 89/91/111 91/93/111 205/209/111 203/207/111
f 92/94/112 90/92/112 204/208/112 206/210/112
f 91/93/111 93/95/111 207/211/111 205/209/111
f 94/96/112 92/94/112 206/210/112 208/212/112
f 93/95/111 95/97/111 209/213/111 207/211/111
f 96/98/112 94/96/112 208/212/112 210/214/112
f 95/97/111 97/99/111 211/215/111 209/213/111
f 98/100/112 96/98/112 210/214/112 212/216/112
f 97/99/111 99/101/111 213/217/111 211/215/111
f 100/102/112 98/100/112 212/216/112 214/218/112
f 99/101/111 101/103/111 215/219/111 213/217/111
f 102/104/112 100/102/112 214/218/112 216/220/112
f 101/103/111 103/105/111 217/221/111 215/219/111
f 104/106/112 102/104/112 216/220/112 218/222/112
f 103/105/111 105/107/111 219/223/111 217/221/111
f 106/108/112 104/106/112 218/222/112 220/224/112
f 105/107/111 1/2/111 115/118/111 219/223/111
f 2/4/112 106/108/112 220/224/112 116/120/112
f 6/8/112 109/111/112 223/227/112 120/124/112
f 110/112/111 5/7/111 119/123/111 224/228/111
f 107/109/112 4/6/112 118/122/112 221/225/112
f 3/5/111 108/110/111 222/226/111 117/121/111
f 113/115/112 111/113/112 225/229/112 227/231/112
f 112/114/111 114/116/111 228/232/111 226/230/111
f 109/111/112 113/115/112 227/231/112 223/227/112
f 111/113/112 107/109/112 221/225/112 225/229/112
f 108/110/111 112/114/111 226/230/111 222/226/111
f 114/116/111 110/112/111 224/228/111 228/232/111
